<mxfile modified="2022-03-14T10:07:20.513Z" host="app.diagrams.net" agent="5.0 (Windows NT 10.0; Win64; x64) AppleWebKit/537.36 (KHTML, like Gecko) Chrome/99.0.4844.51 Safari/537.36" etag="SjKQpIHEywoLiKFNPBT7" version="17.1.2" type="github" pages="2">
  <diagram id="Ht1M8jgEwFfnCIfOTk4-" name="Page-1">
    <mxGraphModel dx="868" dy="460" grid="1" gridSize="10" guides="1" tooltips="1" connect="1" arrows="1" fold="1" page="1" pageScale="1" pageWidth="1169" pageHeight="827" math="0" shadow="0">
      <root>
        <mxCell id="0" />
        <mxCell id="1" parent="0" />
        <mxCell id="UEzPUAAOIrF-is8g5C7q-74" value="AWS Cloud" style="points=[[0,0],[0.25,0],[0.5,0],[0.75,0],[1,0],[1,0.25],[1,0.5],[1,0.75],[1,1],[0.75,1],[0.5,1],[0.25,1],[0,1],[0,0.75],[0,0.5],[0,0.25]];outlineConnect=0;gradientColor=none;html=1;whiteSpace=wrap;fontSize=12;fontStyle=0;shape=mxgraph.aws4.group;grIcon=mxgraph.aws4.group_aws_cloud_alt;strokeColor=#232F3E;fillColor=none;verticalAlign=top;align=left;spacingLeft=30;fontColor=#232F3E;dashed=0;labelBackgroundColor=#ffffff;strokeWidth=3;" parent="1" vertex="1">
          <mxGeometry x="90" y="120" width="970" height="650" as="geometry" />
        </mxCell>
        <mxCell id="UfyhE19yr39kbx-DML4g-71" value="" style="rounded=0;whiteSpace=wrap;html=1;shadow=0;glass=0;sketch=0;strokeWidth=3;gradientColor=none;strokeColor=#E6F2F8;fillColor=#E6F2F8;" parent="1" vertex="1">
          <mxGeometry x="370" y="610" width="440" height="110" as="geometry" />
        </mxCell>
        <mxCell id="UfyhE19yr39kbx-DML4g-66" value="ap-east-1" style="points=[[0,0],[0.25,0],[0.5,0],[0.75,0],[1,0],[1,0.25],[1,0.5],[1,0.75],[1,1],[0.75,1],[0.5,1],[0.25,1],[0,1],[0,0.75],[0,0.5],[0,0.25]];outlineConnect=0;gradientColor=none;html=1;whiteSpace=wrap;fontSize=12;fontStyle=0;shape=mxgraph.aws4.group;grIcon=mxgraph.aws4.group_region;strokeColor=#147EBA;fillColor=none;verticalAlign=top;align=left;spacingLeft=30;fontColor=#147EBA;dashed=1;rounded=0;shadow=0;glass=0;sketch=0;strokeWidth=3;" parent="1" vertex="1">
          <mxGeometry x="100" y="170" width="950" height="590" as="geometry" />
        </mxCell>
        <mxCell id="UfyhE19yr39kbx-DML4g-21" value="VPC" style="points=[[0,0],[0.25,0],[0.5,0],[0.75,0],[1,0],[1,0.25],[1,0.5],[1,0.75],[1,1],[0.75,1],[0.5,1],[0.25,1],[0,1],[0,0.75],[0,0.5],[0,0.25]];outlineConnect=0;gradientColor=none;html=1;whiteSpace=wrap;fontSize=12;fontStyle=0;shape=mxgraph.aws4.group;grIcon=mxgraph.aws4.group_vpc;strokeColor=#248814;fillColor=none;verticalAlign=top;align=left;spacingLeft=30;fontColor=#AAB7B8;dashed=0;rounded=0;strokeWidth=2;" parent="1" vertex="1">
          <mxGeometry x="120" y="223" width="910" height="530" as="geometry" />
        </mxCell>
        <mxCell id="UfyhE19yr39kbx-DML4g-22" value="ap-east-1a" style="fillColor=none;strokeColor=#147EBA;dashed=1;verticalAlign=top;fontStyle=0;fontColor=#147EBA;rounded=0;strokeWidth=2;" parent="1" vertex="1">
          <mxGeometry x="190" y="190" width="200" height="540" as="geometry" />
        </mxCell>
        <mxCell id="UfyhE19yr39kbx-DML4g-23" value="ap-east-1b" style="fillColor=none;strokeColor=#147EBA;dashed=1;verticalAlign=top;fontStyle=0;fontColor=#147EBA;rounded=0;strokeWidth=2;" parent="1" vertex="1">
          <mxGeometry x="790" y="190" width="200" height="540" as="geometry" />
        </mxCell>
        <mxCell id="UfyhE19yr39kbx-DML4g-39" value="Private subnet" style="points=[[0,0],[0.25,0],[0.5,0],[0.75,0],[1,0],[1,0.25],[1,0.5],[1,0.75],[1,1],[0.75,1],[0.5,1],[0.25,1],[0,1],[0,0.75],[0,0.5],[0,0.25]];outlineConnect=0;gradientColor=none;html=1;whiteSpace=wrap;fontSize=12;fontStyle=0;shape=mxgraph.aws4.group;grIcon=mxgraph.aws4.group_security_group;grStroke=0;strokeColor=#147EBA;verticalAlign=top;align=left;spacingLeft=30;fontColor=#147EBA;dashed=0;rounded=0;shadow=0;glass=0;sketch=0;fillColor=#E6F2F8;" parent="1" vertex="1">
          <mxGeometry x="200" y="610" width="170" height="110" as="geometry" />
        </mxCell>
        <mxCell id="UfyhE19yr39kbx-DML4g-25" value="Private subnet" style="points=[[0,0],[0.25,0],[0.5,0],[0.75,0],[1,0],[1,0.25],[1,0.5],[1,0.75],[1,1],[0.75,1],[0.5,1],[0.25,1],[0,1],[0,0.75],[0,0.5],[0,0.25]];outlineConnect=0;gradientColor=none;html=1;whiteSpace=wrap;fontSize=12;fontStyle=0;shape=mxgraph.aws4.group;grIcon=mxgraph.aws4.group_security_group;grStroke=0;strokeColor=#147EBA;fillColor=#E6F2F8;verticalAlign=top;align=left;spacingLeft=30;fontColor=#147EBA;dashed=0;rounded=0;" parent="1" vertex="1">
          <mxGeometry x="200" y="350" width="180" height="250" as="geometry" />
        </mxCell>
        <mxCell id="UfyhE19yr39kbx-DML4g-26" value="Private subnet" style="points=[[0,0],[0.25,0],[0.5,0],[0.75,0],[1,0],[1,0.25],[1,0.5],[1,0.75],[1,1],[0.75,1],[0.5,1],[0.25,1],[0,1],[0,0.75],[0,0.5],[0,0.25]];outlineConnect=0;gradientColor=none;html=1;whiteSpace=wrap;fontSize=12;fontStyle=0;shape=mxgraph.aws4.group;grIcon=mxgraph.aws4.group_security_group;grStroke=0;strokeColor=#147EBA;fillColor=#E6F2F8;verticalAlign=top;align=left;spacingLeft=30;fontColor=#147EBA;dashed=0;rounded=0;" parent="1" vertex="1">
          <mxGeometry x="800" y="350" width="180" height="250" as="geometry" />
        </mxCell>
        <mxCell id="UfyhE19yr39kbx-DML4g-29" value="" style="rounded=0;strokeColor=#82b366;strokeWidth=1;glass=0;sketch=0;shadow=0;whiteSpace=wrap;labelBackgroundColor=none;labelBorderColor=none;fillColor=#E9F3E6;" parent="1" vertex="1">
          <mxGeometry x="380" y="240" width="420" height="100" as="geometry" />
        </mxCell>
        <mxCell id="UEzPUAAOIrF-is8g5C7q-90" value="" style="edgeStyle=orthogonalEdgeStyle;rounded=0;orthogonalLoop=1;jettySize=auto;html=1;endArrow=open;endFill=0;strokeWidth=2;" parent="1" edge="1">
          <mxGeometry relative="1" as="geometry">
            <mxPoint x="480" y="349" as="targetPoint" />
          </mxGeometry>
        </mxCell>
        <mxCell id="UEzPUAAOIrF-is8g5C7q-91" value="" style="edgeStyle=orthogonalEdgeStyle;rounded=0;orthogonalLoop=1;jettySize=auto;html=1;endArrow=open;endFill=0;strokeWidth=2;" parent="1" edge="1">
          <mxGeometry relative="1" as="geometry">
            <mxPoint x="600" y="349" as="targetPoint" />
          </mxGeometry>
        </mxCell>
        <mxCell id="UEzPUAAOIrF-is8g5C7q-96" style="edgeStyle=orthogonalEdgeStyle;rounded=0;orthogonalLoop=1;jettySize=auto;html=1;endArrow=open;endFill=0;strokeWidth=2;startArrow=open;startFill=0;" parent="1" edge="1">
          <mxGeometry relative="1" as="geometry">
            <Array as="points">
              <mxPoint x="638" y="560" />
              <mxPoint x="528" y="560" />
            </Array>
            <mxPoint x="638" y="528" as="sourcePoint" />
          </mxGeometry>
        </mxCell>
        <mxCell id="UEzPUAAOIrF-is8g5C7q-97" style="edgeStyle=orthogonalEdgeStyle;rounded=0;orthogonalLoop=1;jettySize=auto;html=1;endArrow=open;endFill=0;strokeWidth=2;startArrow=open;startFill=0;" parent="1" edge="1">
          <mxGeometry relative="1" as="geometry">
            <Array as="points">
              <mxPoint x="684" y="560" />
              <mxPoint x="859" y="560" />
            </Array>
            <mxPoint x="638" y="528" as="sourcePoint" />
          </mxGeometry>
        </mxCell>
        <mxCell id="UfyhE19yr39kbx-DML4g-10" style="edgeStyle=orthogonalEdgeStyle;rounded=0;orthogonalLoop=1;jettySize=auto;html=1;strokeWidth=2;strokeColor=#FF33FF;" parent="1" source="UfyhE19yr39kbx-DML4g-1" target="UfyhE19yr39kbx-DML4g-9" edge="1">
          <mxGeometry relative="1" as="geometry" />
        </mxCell>
        <mxCell id="UfyhE19yr39kbx-DML4g-1" value="" style="outlineConnect=0;fontColor=#232F3E;gradientColor=none;fillColor=#5A30B5;strokeColor=none;dashed=0;verticalLabelPosition=bottom;verticalAlign=top;align=center;html=1;fontSize=12;fontStyle=0;aspect=fixed;pointerEvents=1;shape=mxgraph.aws4.internet_gateway;" parent="1" vertex="1">
          <mxGeometry x="566" y="90" width="50" height="50" as="geometry" />
        </mxCell>
        <mxCell id="UfyhE19yr39kbx-DML4g-6" style="edgeStyle=orthogonalEdgeStyle;rounded=0;orthogonalLoop=1;jettySize=auto;html=1;strokeWidth=2;strokeColor=#FF33FF;" parent="1" source="UfyhE19yr39kbx-DML4g-4" target="UfyhE19yr39kbx-DML4g-1" edge="1">
          <mxGeometry relative="1" as="geometry" />
        </mxCell>
        <mxCell id="UfyhE19yr39kbx-DML4g-4" value="" style="outlineConnect=0;dashed=0;verticalLabelPosition=bottom;verticalAlign=top;align=center;html=1;fontSize=12;fontStyle=0;aspect=fixed;pointerEvents=1;shape=mxgraph.aws4.user;fillColor=#fa6800;strokeColor=#C73500;fontColor=#000000;gradientColor=#B266FF;" parent="1" vertex="1">
          <mxGeometry x="990" y="10" width="40" height="40" as="geometry" />
        </mxCell>
        <mxCell id="UfyhE19yr39kbx-DML4g-7" value="&lt;font color=&quot;#ff00ff&quot; size=&quot;1&quot;&gt;&lt;b style=&quot;font-size: 14px&quot;&gt;http://apps.quickapp-khoa.link&lt;/b&gt;&lt;/font&gt;" style="text;html=1;align=center;verticalAlign=middle;resizable=0;points=[];autosize=1;rounded=1;" parent="1" vertex="1">
          <mxGeometry x="670" y="38" width="220" height="20" as="geometry" />
        </mxCell>
        <mxCell id="UfyhE19yr39kbx-DML4g-14" style="edgeStyle=orthogonalEdgeStyle;rounded=0;orthogonalLoop=1;jettySize=auto;html=1;strokeWidth=2;exitX=0.5;exitY=1;exitDx=0;exitDy=0;exitPerimeter=0;strokeColor=#FF33FF;" parent="1" source="UfyhE19yr39kbx-DML4g-9" target="UfyhE19yr39kbx-DML4g-13" edge="1">
          <mxGeometry relative="1" as="geometry">
            <mxPoint x="591" y="230" as="sourcePoint" />
          </mxGeometry>
        </mxCell>
        <mxCell id="UfyhE19yr39kbx-DML4g-9" value="" style="points=[[0,0,0],[0.25,0,0],[0.5,0,0],[0.75,0,0],[1,0,0],[0,1,0],[0.25,1,0],[0.5,1,0],[0.75,1,0],[1,1,0],[0,0.25,0],[0,0.5,0],[0,0.75,0],[1,0.25,0],[1,0.5,0],[1,0.75,0]];outlineConnect=0;fontColor=#232F3E;gradientDirection=north;fillColor=#5A30B5;strokeColor=#ffffff;dashed=0;verticalLabelPosition=bottom;verticalAlign=top;align=center;html=1;fontSize=12;fontStyle=0;aspect=fixed;shape=mxgraph.aws4.resourceIcon;resIcon=mxgraph.aws4.route_53;rounded=1;" parent="1" vertex="1">
          <mxGeometry x="566" y="160" width="50" height="50" as="geometry" />
        </mxCell>
        <mxCell id="UfyhE19yr39kbx-DML4g-12" value="" style="rounded=0;whiteSpace=wrap;html=1;dashed=1;strokeColor=#1A1A1A;strokeWidth=4;fillColor=none;gradientColor=none;" parent="1" vertex="1">
          <mxGeometry x="401" y="230" width="380" height="130" as="geometry" />
        </mxCell>
        <mxCell id="UfyhE19yr39kbx-DML4g-33" style="edgeStyle=orthogonalEdgeStyle;rounded=0;orthogonalLoop=1;jettySize=auto;html=1;fontColor=#000000;strokeWidth=2;strokeColor=#FF33FF;" parent="1" source="UfyhE19yr39kbx-DML4g-13" target="UfyhE19yr39kbx-DML4g-31" edge="1">
          <mxGeometry relative="1" as="geometry">
            <Array as="points">
              <mxPoint x="440" y="285" />
              <mxPoint x="440" y="464" />
            </Array>
          </mxGeometry>
        </mxCell>
        <mxCell id="UfyhE19yr39kbx-DML4g-34" style="edgeStyle=orthogonalEdgeStyle;rounded=0;orthogonalLoop=1;jettySize=auto;html=1;fontColor=#000000;strokeWidth=2;strokeColor=#FF33FF;" parent="1" source="UfyhE19yr39kbx-DML4g-13" target="UfyhE19yr39kbx-DML4g-32" edge="1">
          <mxGeometry relative="1" as="geometry">
            <Array as="points">
              <mxPoint x="740" y="285" />
              <mxPoint x="740" y="470" />
            </Array>
          </mxGeometry>
        </mxCell>
        <mxCell id="UfyhE19yr39kbx-DML4g-13" value="" style="outlineConnect=0;fontColor=#232F3E;gradientColor=none;fillColor=#5A30B5;strokeColor=none;dashed=0;verticalLabelPosition=bottom;verticalAlign=top;align=center;html=1;fontSize=12;fontStyle=0;aspect=fixed;pointerEvents=1;shape=mxgraph.aws4.network_load_balancer;rounded=0;" parent="1" vertex="1">
          <mxGeometry x="566" y="260" width="50" height="50" as="geometry" />
        </mxCell>
        <mxCell id="UfyhE19yr39kbx-DML4g-27" value="Public subnet" style="points=[[0,0],[0.25,0],[0.5,0],[0.75,0],[1,0],[1,0.25],[1,0.5],[1,0.75],[1,1],[0.75,1],[0.5,1],[0.25,1],[0,1],[0,0.75],[0,0.5],[0,0.25]];outlineConnect=0;gradientColor=none;html=1;whiteSpace=wrap;fontSize=12;fontStyle=0;shape=mxgraph.aws4.group;grIcon=mxgraph.aws4.group_security_group;grStroke=0;strokeColor=#248814;fillColor=#E9F3E6;verticalAlign=top;align=left;spacingLeft=30;fontColor=#248814;dashed=0;rounded=0;" parent="1" vertex="1">
          <mxGeometry x="200" y="240" width="180" height="100" as="geometry" />
        </mxCell>
        <mxCell id="UfyhE19yr39kbx-DML4g-28" value="Public subnet" style="points=[[0,0],[0.25,0],[0.5,0],[0.75,0],[1,0],[1,0.25],[1,0.5],[1,0.75],[1,1],[0.75,1],[0.5,1],[0.25,1],[0,1],[0,0.75],[0,0.5],[0,0.25]];outlineConnect=0;gradientColor=none;html=1;whiteSpace=wrap;fontSize=12;fontStyle=0;shape=mxgraph.aws4.group;grIcon=mxgraph.aws4.group_security_group;grStroke=0;strokeColor=#248814;fillColor=#E9F3E6;verticalAlign=top;align=left;spacingLeft=30;fontColor=#248814;dashed=0;rounded=0;" parent="1" vertex="1">
          <mxGeometry x="800" y="240" width="180" height="100" as="geometry" />
        </mxCell>
        <mxCell id="UfyhE19yr39kbx-DML4g-31" value="" style="outlineConnect=0;fontColor=#232F3E;gradientColor=none;fillColor=#D86613;strokeColor=none;dashed=0;verticalLabelPosition=bottom;verticalAlign=top;align=center;html=1;fontSize=12;fontStyle=0;aspect=fixed;pointerEvents=1;shape=mxgraph.aws4.a1_instance;rounded=0;shadow=0;glass=0;sketch=0;" parent="1" vertex="1">
          <mxGeometry x="265" y="500" width="50" height="50" as="geometry" />
        </mxCell>
        <mxCell id="UfyhE19yr39kbx-DML4g-32" value="" style="outlineConnect=0;fontColor=#232F3E;gradientColor=none;fillColor=#D86613;strokeColor=none;dashed=0;verticalLabelPosition=bottom;verticalAlign=top;align=center;html=1;fontSize=12;fontStyle=0;aspect=fixed;pointerEvents=1;shape=mxgraph.aws4.a1_instance;rounded=0;shadow=0;glass=0;sketch=0;" parent="1" vertex="1">
          <mxGeometry x="861" y="502" width="48" height="48" as="geometry" />
        </mxCell>
        <mxCell id="UfyhE19yr39kbx-DML4g-38" value="Amazon EKS" style="outlineConnect=0;fontColor=#232F3E;gradientColor=none;strokeColor=#ffffff;fillColor=#232F3E;dashed=0;verticalLabelPosition=middle;verticalAlign=bottom;align=center;html=1;whiteSpace=wrap;fontSize=10;fontStyle=1;spacing=3;shape=mxgraph.aws4.productIcon;prIcon=mxgraph.aws4.eks;rounded=0;shadow=0;glass=0;sketch=0;" parent="1" vertex="1">
          <mxGeometry x="215" y="380" width="35" height="60.12" as="geometry" />
        </mxCell>
        <mxCell id="UfyhE19yr39kbx-DML4g-40" value="Private subnet" style="points=[[0,0],[0.25,0],[0.5,0],[0.75,0],[1,0],[1,0.25],[1,0.5],[1,0.75],[1,1],[0.75,1],[0.5,1],[0.25,1],[0,1],[0,0.75],[0,0.5],[0,0.25]];outlineConnect=0;gradientColor=none;html=1;whiteSpace=wrap;fontSize=12;fontStyle=0;shape=mxgraph.aws4.group;grIcon=mxgraph.aws4.group_security_group;grStroke=0;strokeColor=#147EBA;fillColor=#E6F2F8;verticalAlign=top;align=left;spacingLeft=30;fontColor=#147EBA;dashed=0;rounded=0;shadow=0;glass=0;sketch=0;" parent="1" vertex="1">
          <mxGeometry x="810" y="610" width="170" height="110" as="geometry" />
        </mxCell>
        <mxCell id="UfyhE19yr39kbx-DML4g-44" value="" style="outlineConnect=0;fontColor=#232F3E;gradientColor=none;fillColor=#3334B9;strokeColor=none;dashed=0;verticalLabelPosition=bottom;verticalAlign=top;align=center;html=1;fontSize=12;fontStyle=0;aspect=fixed;pointerEvents=1;shape=mxgraph.aws4.rds_instance_alt;rounded=0;shadow=0;glass=0;sketch=0;" parent="1" vertex="1">
          <mxGeometry x="255.5" y="630.5" width="69" height="69" as="geometry" />
        </mxCell>
        <mxCell id="UfyhE19yr39kbx-DML4g-45" value="" style="outlineConnect=0;fontColor=#232F3E;gradientColor=none;fillColor=#3334B9;strokeColor=none;dashed=0;verticalLabelPosition=bottom;verticalAlign=top;align=center;html=1;fontSize=12;fontStyle=0;aspect=fixed;pointerEvents=1;shape=mxgraph.aws4.rds_instance_alt;rounded=0;shadow=0;glass=0;sketch=0;" parent="1" vertex="1">
          <mxGeometry x="850.5" y="630.5" width="69" height="69" as="geometry" />
        </mxCell>
        <mxCell id="UfyhE19yr39kbx-DML4g-50" value="" style="endArrow=none;html=1;fontColor=#000000;strokeColor=#FF33FF;strokeWidth=2;" parent="1" source="UfyhE19yr39kbx-DML4g-31" edge="1">
          <mxGeometry width="50" height="50" relative="1" as="geometry">
            <mxPoint x="470" y="660" as="sourcePoint" />
            <mxPoint x="580" y="660" as="targetPoint" />
          </mxGeometry>
        </mxCell>
        <mxCell id="UfyhE19yr39kbx-DML4g-51" value="" style="endArrow=none;html=1;fontColor=#000000;strokeColor=#FF33FF;strokeWidth=2;" parent="1" target="UfyhE19yr39kbx-DML4g-32" edge="1">
          <mxGeometry width="50" height="50" relative="1" as="geometry">
            <mxPoint x="580" y="660" as="sourcePoint" />
            <mxPoint x="650" y="589" as="targetPoint" />
          </mxGeometry>
        </mxCell>
        <mxCell id="UfyhE19yr39kbx-DML4g-52" value="" style="endArrow=classic;startArrow=classic;html=1;fontColor=#000000;strokeColor=#FF33FF;strokeWidth=2;" parent="1" target="UfyhE19yr39kbx-DML4g-45" edge="1">
          <mxGeometry width="50" height="50" relative="1" as="geometry">
            <mxPoint x="325" y="666" as="sourcePoint" />
            <mxPoint x="616" y="658" as="targetPoint" />
            <Array as="points" />
          </mxGeometry>
        </mxCell>
        <mxCell id="UfyhE19yr39kbx-DML4g-53" value="&lt;b&gt;&lt;font style=&quot;font-size: 14px&quot;&gt;Internet Gateway&lt;/font&gt;&lt;/b&gt;" style="text;html=1;strokeColor=none;fillColor=none;align=center;verticalAlign=middle;whiteSpace=wrap;rounded=0;shadow=0;glass=0;sketch=0;" parent="1" vertex="1">
          <mxGeometry x="616" y="120" width="120" height="20" as="geometry" />
        </mxCell>
        <mxCell id="UfyhE19yr39kbx-DML4g-54" value="&lt;b&gt;&lt;font style=&quot;font-size: 14px&quot;&gt;Route 53&lt;/font&gt;&lt;/b&gt;" style="text;html=1;strokeColor=none;fillColor=none;align=center;verticalAlign=middle;whiteSpace=wrap;rounded=0;shadow=0;glass=0;sketch=0;" parent="1" vertex="1">
          <mxGeometry x="456" y="175" width="120" height="20" as="geometry" />
        </mxCell>
        <mxCell id="UfyhE19yr39kbx-DML4g-55" value="&lt;b&gt;&lt;font style=&quot;font-size: 14px&quot;&gt;Network Load Balancer&lt;/font&gt;&lt;/b&gt;" style="text;html=1;strokeColor=none;fillColor=none;align=center;verticalAlign=middle;whiteSpace=wrap;rounded=0;shadow=0;glass=0;sketch=0;" parent="1" vertex="1">
          <mxGeometry x="506.5" y="310" width="169" height="20" as="geometry" />
        </mxCell>
        <mxCell id="UfyhE19yr39kbx-DML4g-56" value="&lt;b&gt;&lt;font style=&quot;font-size: 14px&quot;&gt;NAT gateway&lt;/font&gt;&lt;/b&gt;" style="outlineConnect=0;fontColor=#232F3E;gradientColor=none;strokeColor=#232F3E;dashed=0;verticalLabelPosition=bottom;verticalAlign=top;align=center;html=1;fontSize=12;fontStyle=0;aspect=fixed;shape=mxgraph.aws4.resourceIcon;resIcon=mxgraph.aws4.nat_gateway;rounded=0;shadow=0;glass=0;sketch=0;fillColor=none;" parent="1" vertex="1">
          <mxGeometry x="265" y="260" width="50" height="50" as="geometry" />
        </mxCell>
        <mxCell id="UfyhE19yr39kbx-DML4g-59" value="" style="outlineConnect=0;fontColor=#232F3E;gradientColor=none;fillColor=#D86613;strokeColor=none;dashed=0;verticalLabelPosition=bottom;verticalAlign=top;align=center;html=1;fontSize=12;fontStyle=0;aspect=fixed;pointerEvents=1;shape=mxgraph.aws4.instance2;rounded=0;shadow=0;glass=0;sketch=0;" parent="1" vertex="1">
          <mxGeometry x="861" y="262" width="48" height="48" as="geometry" />
        </mxCell>
        <mxCell id="UfyhE19yr39kbx-DML4g-60" value="&lt;span style=&quot;font-size: 14px&quot;&gt;&lt;b&gt;Bastion EC2 Instance&lt;/b&gt;&lt;/span&gt;" style="text;html=1;strokeColor=none;fillColor=none;align=center;verticalAlign=middle;whiteSpace=wrap;rounded=0;shadow=0;glass=0;sketch=0;" parent="1" vertex="1">
          <mxGeometry x="807.5" y="310" width="155" height="30" as="geometry" />
        </mxCell>
        <mxCell id="UfyhE19yr39kbx-DML4g-36" value="&lt;font style=&quot;font-size: 12px&quot;&gt;Auto Scaling group&lt;/font&gt;" style="points=[[0,0],[0.25,0],[0.5,0],[0.75,0],[1,0],[1,0.25],[1,0.5],[1,0.75],[1,1],[0.75,1],[0.5,1],[0.25,1],[0,1],[0,0.75],[0,0.5],[0,0.25]];outlineConnect=0;gradientColor=none;html=1;whiteSpace=wrap;fontSize=12;fontStyle=0;shape=mxgraph.aws4.groupCenter;grIcon=mxgraph.aws4.group_auto_scaling_group;grStroke=1;fillColor=none;verticalAlign=top;align=center;fontColor=#D86613;dashed=1;spacingTop=25;rounded=0;shadow=0;glass=0;sketch=0;strokeColor=#FF9933;strokeWidth=3;" parent="1" vertex="1">
          <mxGeometry x="260" y="460" width="660" height="96" as="geometry" />
        </mxCell>
        <mxCell id="UfyhE19yr39kbx-DML4g-64" value="&lt;b&gt;Worker Node&lt;/b&gt;" style="text;html=1;strokeColor=none;fillColor=none;align=center;verticalAlign=middle;whiteSpace=wrap;rounded=0;shadow=0;glass=0;sketch=0;" parent="1" vertex="1">
          <mxGeometry x="232.5" y="550" width="115" height="20" as="geometry" />
        </mxCell>
        <mxCell id="UfyhE19yr39kbx-DML4g-65" value="&lt;b&gt;Worker Node&lt;/b&gt;" style="text;html=1;strokeColor=none;fillColor=none;align=center;verticalAlign=middle;whiteSpace=wrap;rounded=0;shadow=0;glass=0;sketch=0;" parent="1" vertex="1">
          <mxGeometry x="827.5" y="550" width="115" height="20" as="geometry" />
        </mxCell>
        <mxCell id="UfyhE19yr39kbx-DML4g-67" value="" style="points=[[0,0,0],[0.25,0,0],[0.5,0,0],[0.75,0,0],[1,0,0],[0,1,0],[0.25,1,0],[0.5,1,0],[0.75,1,0],[1,1,0],[0,0.25,0],[0,0.5,0],[0,0.75,0],[1,0.25,0],[1,0.5,0],[1,0.75,0]];outlineConnect=0;fontColor=#232F3E;gradientColor=#F54749;gradientDirection=north;fillColor=#C7131F;strokeColor=#ffffff;dashed=0;verticalLabelPosition=bottom;verticalAlign=top;align=center;html=1;fontSize=12;fontStyle=0;aspect=fixed;shape=mxgraph.aws4.resourceIcon;resIcon=mxgraph.aws4.certificate_manager_3;rounded=0;shadow=0;glass=0;sketch=0;" parent="1" vertex="1">
          <mxGeometry x="690" y="160" width="50" height="50" as="geometry" />
        </mxCell>
        <mxCell id="UfyhE19yr39kbx-DML4g-68" value="" style="endArrow=classic;startArrow=classic;html=1;fontColor=#000000;strokeWidth=1;exitX=1;exitY=0.5;exitDx=0;exitDy=0;exitPerimeter=0;entryX=0;entryY=0.5;entryDx=0;entryDy=0;entryPerimeter=0;strokeColor=#1A1A1A;" parent="1" source="UfyhE19yr39kbx-DML4g-9" target="UfyhE19yr39kbx-DML4g-67" edge="1">
          <mxGeometry width="50" height="50" relative="1" as="geometry">
            <mxPoint x="640" y="240" as="sourcePoint" />
            <mxPoint x="690" y="190" as="targetPoint" />
          </mxGeometry>
        </mxCell>
        <mxCell id="UfyhE19yr39kbx-DML4g-69" value="&lt;b&gt;&lt;font style=&quot;font-size: 14px&quot;&gt;ACM&lt;/font&gt;&lt;/b&gt;" style="text;html=1;strokeColor=none;fillColor=none;align=center;verticalAlign=middle;whiteSpace=wrap;rounded=0;shadow=0;glass=0;sketch=0;" parent="1" vertex="1">
          <mxGeometry x="700" y="170" width="120" height="25" as="geometry" />
        </mxCell>
        <mxCell id="UfyhE19yr39kbx-DML4g-70" value="EKS Node Group" style="outlineConnect=0;fontColor=#232F3E;gradientColor=none;strokeColor=#ffffff;fillColor=#232F3E;dashed=0;verticalLabelPosition=middle;verticalAlign=bottom;align=center;html=1;whiteSpace=wrap;fontSize=10;fontStyle=1;spacing=3;shape=mxgraph.aws4.productIcon;prIcon=mxgraph.aws4.eks;rounded=0;shadow=0;glass=0;sketch=0;" parent="1" vertex="1">
          <mxGeometry x="225.5" y="448.44" width="30" height="70.12" as="geometry" />
        </mxCell>
        <mxCell id="UfyhE19yr39kbx-DML4g-62" value="" style="rounded=0;whiteSpace=wrap;html=1;shadow=0;glass=0;sketch=0;strokeWidth=3;fillColor=none;strokeColor=#660000;" parent="1" vertex="1">
          <mxGeometry x="220" y="440" width="730" height="130" as="geometry" />
        </mxCell>
        <mxCell id="UfyhE19yr39kbx-DML4g-37" value="" style="rounded=0;whiteSpace=wrap;html=1;shadow=0;glass=0;sketch=0;strokeWidth=3;fillColor=none;strokeColor=#660066;" parent="1" vertex="1">
          <mxGeometry x="210" y="380" width="760" height="207" as="geometry" />
        </mxCell>
      </root>
    </mxGraphModel>
  </diagram>
  <diagram id="wcryf5eeCTRZgtt9wmyx" name="Page-2">
    <mxGraphModel dx="2031" dy="1103" grid="1" gridSize="10" guides="1" tooltips="1" connect="1" arrows="1" fold="1" page="1" pageScale="1" pageWidth="850" pageHeight="1100" math="0" shadow="0">
      <root>
        <mxCell id="diUcScaxgCmvlvJFZB_D-0" />
        <mxCell id="diUcScaxgCmvlvJFZB_D-1" parent="diUcScaxgCmvlvJFZB_D-0" />
        <mxCell id="vnjhsCUeSY2w8thmIdrJ-1" value="account 3" style="points=[[0,0],[0.25,0],[0.5,0],[0.75,0],[1,0],[1,0.25],[1,0.5],[1,0.75],[1,1],[0.75,1],[0.5,1],[0.25,1],[0,1],[0,0.75],[0,0.5],[0,0.25]];outlineConnect=0;gradientColor=none;html=1;whiteSpace=wrap;fontSize=12;fontStyle=0;shape=mxgraph.aws4.group;grIcon=mxgraph.aws4.group_region;strokeColor=#147EBA;fillColor=none;verticalAlign=top;align=left;spacingLeft=30;fontColor=#147EBA;dashed=1;rounded=0;shadow=0;glass=0;sketch=0;strokeWidth=3;" parent="diUcScaxgCmvlvJFZB_D-1" vertex="1">
          <mxGeometry x="590" y="340" width="230" height="250" as="geometry" />
        </mxCell>
        <mxCell id="vnjhsCUeSY2w8thmIdrJ-0" value="account 2" style="points=[[0,0],[0.25,0],[0.5,0],[0.75,0],[1,0],[1,0.25],[1,0.5],[1,0.75],[1,1],[0.75,1],[0.5,1],[0.25,1],[0,1],[0,0.75],[0,0.5],[0,0.25]];outlineConnect=0;gradientColor=none;html=1;whiteSpace=wrap;fontSize=12;fontStyle=0;shape=mxgraph.aws4.group;grIcon=mxgraph.aws4.group_region;strokeColor=#147EBA;fillColor=none;verticalAlign=top;align=left;spacingLeft=30;fontColor=#147EBA;dashed=1;rounded=0;shadow=0;glass=0;sketch=0;strokeWidth=3;" parent="diUcScaxgCmvlvJFZB_D-1" vertex="1">
          <mxGeometry x="590" y="80" width="220" height="210" as="geometry" />
        </mxCell>
        <mxCell id="fUsq3bjTPYLzMvQK7Vmv-0" value="AWS Cloud" style="points=[[0,0],[0.25,0],[0.5,0],[0.75,0],[1,0],[1,0.25],[1,0.5],[1,0.75],[1,1],[0.75,1],[0.5,1],[0.25,1],[0,1],[0,0.75],[0,0.5],[0,0.25]];outlineConnect=0;gradientColor=none;html=1;whiteSpace=wrap;fontSize=12;fontStyle=0;shape=mxgraph.aws4.group;grIcon=mxgraph.aws4.group_aws_cloud_alt;strokeColor=#232F3E;fillColor=none;verticalAlign=top;align=left;spacingLeft=30;fontColor=#232F3E;dashed=0;labelBackgroundColor=#ffffff;strokeWidth=3;" parent="diUcScaxgCmvlvJFZB_D-1" vertex="1">
          <mxGeometry x="50" y="60" width="250" height="300" as="geometry" />
        </mxCell>
        <mxCell id="fUsq3bjTPYLzMvQK7Vmv-1" value="AWS Cloud" style="points=[[0,0],[0.25,0],[0.5,0],[0.75,0],[1,0],[1,0.25],[1,0.5],[1,0.75],[1,1],[0.75,1],[0.5,1],[0.25,1],[0,1],[0,0.75],[0,0.5],[0,0.25]];outlineConnect=0;gradientColor=none;html=1;whiteSpace=wrap;fontSize=12;fontStyle=0;shape=mxgraph.aws4.group;grIcon=mxgraph.aws4.group_aws_cloud_alt;strokeColor=#232F3E;fillColor=none;verticalAlign=top;align=left;spacingLeft=30;fontColor=#232F3E;dashed=0;labelBackgroundColor=#ffffff;strokeWidth=3;" parent="diUcScaxgCmvlvJFZB_D-1" vertex="1">
          <mxGeometry x="480" y="50" width="360" height="260" as="geometry" />
        </mxCell>
        <mxCell id="bGJsrvgCOzJd2c4snqq6-0" value="us-east-2a - cloudtrans" style="points=[[0,0],[0.25,0],[0.5,0],[0.75,0],[1,0],[1,0.25],[1,0.5],[1,0.75],[1,1],[0.75,1],[0.5,1],[0.25,1],[0,1],[0,0.75],[0,0.5],[0,0.25]];outlineConnect=0;gradientColor=none;html=1;whiteSpace=wrap;fontSize=12;fontStyle=0;shape=mxgraph.aws4.group;grIcon=mxgraph.aws4.group_region;strokeColor=#147EBA;fillColor=none;verticalAlign=top;align=left;spacingLeft=30;fontColor=#147EBA;dashed=1;rounded=0;shadow=0;glass=0;sketch=0;strokeWidth=3;" parent="diUcScaxgCmvlvJFZB_D-1" vertex="1">
          <mxGeometry x="70" y="100" width="120" height="220" as="geometry" />
        </mxCell>
        <mxCell id="bGJsrvgCOzJd2c4snqq6-1" value="us-east-2a" style="points=[[0,0],[0.25,0],[0.5,0],[0.75,0],[1,0],[1,0.25],[1,0.5],[1,0.75],[1,1],[0.75,1],[0.5,1],[0.25,1],[0,1],[0,0.75],[0,0.5],[0,0.25]];outlineConnect=0;gradientColor=none;html=1;whiteSpace=wrap;fontSize=12;fontStyle=0;shape=mxgraph.aws4.group;grIcon=mxgraph.aws4.group_region;strokeColor=#147EBA;fillColor=none;verticalAlign=top;align=left;spacingLeft=30;fontColor=#147EBA;dashed=1;rounded=0;shadow=0;glass=0;sketch=0;strokeWidth=3;" parent="diUcScaxgCmvlvJFZB_D-1" vertex="1">
          <mxGeometry x="690" y="100" width="100" height="180" as="geometry" />
        </mxCell>
        <mxCell id="bGJsrvgCOzJd2c4snqq6-2" value="us-west-1a" style="points=[[0,0],[0.25,0],[0.5,0],[0.75,0],[1,0],[1,0.25],[1,0.5],[1,0.75],[1,1],[0.75,1],[0.5,1],[0.25,1],[0,1],[0,0.75],[0,0.5],[0,0.25]];outlineConnect=0;gradientColor=none;html=1;whiteSpace=wrap;fontSize=12;fontStyle=0;shape=mxgraph.aws4.group;grIcon=mxgraph.aws4.group_region;strokeColor=#147EBA;fillColor=none;verticalAlign=top;align=left;spacingLeft=30;fontColor=#147EBA;dashed=1;rounded=0;shadow=0;glass=0;sketch=0;strokeWidth=3;" parent="diUcScaxgCmvlvJFZB_D-1" vertex="1">
          <mxGeometry x="680" y="350" width="110" height="220" as="geometry" />
        </mxCell>
        <mxCell id="qm277XdwEFKSM5kVf-kU-0" value="Private subnet" style="points=[[0,0],[0.25,0],[0.5,0],[0.75,0],[1,0],[1,0.25],[1,0.5],[1,0.75],[1,1],[0.75,1],[0.5,1],[0.25,1],[0,1],[0,0.75],[0,0.5],[0,0.25]];outlineConnect=0;gradientColor=none;html=1;whiteSpace=wrap;fontSize=12;fontStyle=0;shape=mxgraph.aws4.group;grIcon=mxgraph.aws4.group_security_group;grStroke=0;strokeColor=#147EBA;fillColor=#E6F2F8;verticalAlign=top;align=left;spacingLeft=30;fontColor=#147EBA;dashed=0;rounded=0;" parent="diUcScaxgCmvlvJFZB_D-1" vertex="1">
          <mxGeometry x="80" y="140" width="90" height="70" as="geometry" />
        </mxCell>
        <mxCell id="qm277XdwEFKSM5kVf-kU-1" value="Private subnet" style="points=[[0,0],[0.25,0],[0.5,0],[0.75,0],[1,0],[1,0.25],[1,0.5],[1,0.75],[1,1],[0.75,1],[0.5,1],[0.25,1],[0,1],[0,0.75],[0,0.5],[0,0.25]];outlineConnect=0;gradientColor=none;html=1;whiteSpace=wrap;fontSize=12;fontStyle=0;shape=mxgraph.aws4.group;grIcon=mxgraph.aws4.group_security_group;grStroke=0;strokeColor=#147EBA;fillColor=#E6F2F8;verticalAlign=top;align=left;spacingLeft=30;fontColor=#147EBA;dashed=0;rounded=0;" parent="diUcScaxgCmvlvJFZB_D-1" vertex="1">
          <mxGeometry x="695" y="130" width="85" height="60" as="geometry" />
        </mxCell>
        <mxCell id="qm277XdwEFKSM5kVf-kU-2" value="Private subnet" style="points=[[0,0],[0.25,0],[0.5,0],[0.75,0],[1,0],[1,0.25],[1,0.5],[1,0.75],[1,1],[0.75,1],[0.5,1],[0.25,1],[0,1],[0,0.75],[0,0.5],[0,0.25]];outlineConnect=0;gradientColor=none;html=1;whiteSpace=wrap;fontSize=12;fontStyle=0;shape=mxgraph.aws4.group;grIcon=mxgraph.aws4.group_security_group;grStroke=0;strokeColor=#147EBA;fillColor=#E6F2F8;verticalAlign=top;align=left;spacingLeft=30;fontColor=#147EBA;dashed=0;rounded=0;" parent="diUcScaxgCmvlvJFZB_D-1" vertex="1">
          <mxGeometry x="695" y="380" width="85" height="70" as="geometry" />
        </mxCell>
        <mxCell id="-WN68BjJhu5OnDN3eYsL-0" value="Public subnet" style="points=[[0,0],[0.25,0],[0.5,0],[0.75,0],[1,0],[1,0.25],[1,0.5],[1,0.75],[1,1],[0.75,1],[0.5,1],[0.25,1],[0,1],[0,0.75],[0,0.5],[0,0.25]];outlineConnect=0;gradientColor=none;html=1;whiteSpace=wrap;fontSize=12;fontStyle=0;shape=mxgraph.aws4.group;grIcon=mxgraph.aws4.group_security_group;grStroke=0;strokeColor=#248814;fillColor=#E9F3E6;verticalAlign=top;align=left;spacingLeft=30;fontColor=#248814;dashed=0;rounded=0;" parent="diUcScaxgCmvlvJFZB_D-1" vertex="1">
          <mxGeometry x="80" y="220" width="90" height="90" as="geometry" />
        </mxCell>
        <mxCell id="-WN68BjJhu5OnDN3eYsL-1" value="Public subnet" style="points=[[0,0],[0.25,0],[0.5,0],[0.75,0],[1,0],[1,0.25],[1,0.5],[1,0.75],[1,1],[0.75,1],[0.5,1],[0.25,1],[0,1],[0,0.75],[0,0.5],[0,0.25]];outlineConnect=0;gradientColor=none;html=1;whiteSpace=wrap;fontSize=12;fontStyle=0;shape=mxgraph.aws4.group;grIcon=mxgraph.aws4.group_security_group;grStroke=0;strokeColor=#248814;fillColor=#E9F3E6;verticalAlign=top;align=left;spacingLeft=30;fontColor=#248814;dashed=0;rounded=0;" parent="diUcScaxgCmvlvJFZB_D-1" vertex="1">
          <mxGeometry x="695" y="460" width="90" height="90" as="geometry" />
        </mxCell>
        <mxCell id="-WN68BjJhu5OnDN3eYsL-2" value="Public subnet" style="points=[[0,0],[0.25,0],[0.5,0],[0.75,0],[1,0],[1,0.25],[1,0.5],[1,0.75],[1,1],[0.75,1],[0.5,1],[0.25,1],[0,1],[0,0.75],[0,0.5],[0,0.25]];outlineConnect=0;gradientColor=none;html=1;whiteSpace=wrap;fontSize=12;fontStyle=0;shape=mxgraph.aws4.group;grIcon=mxgraph.aws4.group_security_group;grStroke=0;strokeColor=#248814;fillColor=#E9F3E6;verticalAlign=top;align=left;spacingLeft=30;fontColor=#248814;dashed=0;rounded=0;" parent="diUcScaxgCmvlvJFZB_D-1" vertex="1">
          <mxGeometry x="695" y="200" width="90" height="70" as="geometry" />
        </mxCell>
        <mxCell id="vnjhsCUeSY2w8thmIdrJ-2" value="" style="sketch=0;points=[[0,0,0],[0.25,0,0],[0.5,0,0],[0.75,0,0],[1,0,0],[0,1,0],[0.25,1,0],[0.5,1,0],[0.75,1,0],[1,1,0],[0,0.25,0],[0,0.5,0],[0,0.75,0],[1,0.25,0],[1,0.5,0],[1,0.75,0]];outlineConnect=0;fontColor=#232F3E;gradientColor=#945DF2;gradientDirection=north;fillColor=#5A30B5;strokeColor=#ffffff;dashed=0;verticalLabelPosition=bottom;verticalAlign=top;align=center;html=1;fontSize=12;fontStyle=0;aspect=fixed;shape=mxgraph.aws4.resourceIcon;resIcon=mxgraph.aws4.transit_gateway;" parent="diUcScaxgCmvlvJFZB_D-1" vertex="1">
          <mxGeometry x="200" y="330" width="60" height="60" as="geometry" />
        </mxCell>
        <mxCell id="vnjhsCUeSY2w8thmIdrJ-3" value="" style="sketch=0;points=[[0,0,0],[0.25,0,0],[0.5,0,0],[0.75,0,0],[1,0,0],[0,1,0],[0.25,1,0],[0.5,1,0],[0.75,1,0],[1,1,0],[0,0.25,0],[0,0.5,0],[0,0.75,0],[1,0.25,0],[1,0.5,0],[1,0.75,0]];outlineConnect=0;fontColor=#232F3E;gradientColor=#945DF2;gradientDirection=north;fillColor=#5A30B5;strokeColor=#ffffff;dashed=0;verticalLabelPosition=bottom;verticalAlign=top;align=center;html=1;fontSize=12;fontStyle=0;aspect=fixed;shape=mxgraph.aws4.resourceIcon;resIcon=mxgraph.aws4.transit_gateway;" parent="diUcScaxgCmvlvJFZB_D-1" vertex="1">
          <mxGeometry x="200" y="580" width="60" height="60" as="geometry" />
        </mxCell>
        <mxCell id="vnjhsCUeSY2w8thmIdrJ-4" value="" style="endArrow=classic;html=1;rounded=0;exitX=1;exitY=0.5;exitDx=0;exitDy=0;entryX=0.5;entryY=0;entryDx=0;entryDy=0;entryPerimeter=0;" parent="diUcScaxgCmvlvJFZB_D-1" source="qm277XdwEFKSM5kVf-kU-0" target="vnjhsCUeSY2w8thmIdrJ-2" edge="1">
          <mxGeometry width="50" height="50" relative="1" as="geometry">
            <mxPoint x="400" y="360" as="sourcePoint" />
            <mxPoint x="450" y="310" as="targetPoint" />
            <Array as="points">
              <mxPoint x="230" y="175" />
            </Array>
          </mxGeometry>
        </mxCell>
        <mxCell id="vnjhsCUeSY2w8thmIdrJ-7" value="" style="endArrow=none;html=1;rounded=0;exitX=1;exitY=0.5;exitDx=0;exitDy=0;exitPerimeter=0;" parent="diUcScaxgCmvlvJFZB_D-1" source="vnjhsCUeSY2w8thmIdrJ-2" edge="1">
          <mxGeometry width="50" height="50" relative="1" as="geometry">
            <mxPoint x="230" y="180" as="sourcePoint" />
            <mxPoint x="695" y="160" as="targetPoint" />
          </mxGeometry>
        </mxCell>
        <mxCell id="vnjhsCUeSY2w8thmIdrJ-8" value="" style="endArrow=none;html=1;rounded=0;exitX=1;exitY=0.5;exitDx=0;exitDy=0;exitPerimeter=0;entryX=0;entryY=0.5;entryDx=0;entryDy=0;" parent="diUcScaxgCmvlvJFZB_D-1" source="vnjhsCUeSY2w8thmIdrJ-2" target="qm277XdwEFKSM5kVf-kU-2" edge="1">
          <mxGeometry width="50" height="50" relative="1" as="geometry">
            <mxPoint x="440" y="380" as="sourcePoint" />
            <mxPoint x="490" y="330" as="targetPoint" />
          </mxGeometry>
        </mxCell>
      </root>
    </mxGraphModel>
  </diagram>
</mxfile>
